<svg xmlns="http://www.w3.org/2000/svg" width="56.373" height="78.068" viewBox="0 0 56.373 78.068">
  <path id="Path_61" data-name="Path 61" d="M204.051,54.529A256.881,256.881,0,0,0,235.661,58.7c-8.675-.891-20.214-1.908-32.133-4.59,12.644.907,23.947,1.034,31.935,1.314-7.927-.484-19.241-.682-31.7-1.649,11.545-.737,21.847-1.754,29.137-2.661-7.576.737-18.439,1.9-30.511,2.424,9.9-3.562,20.055-3.8,25.734-7.828-5.651,3.76-15.14,4.019-25.118,7.284,8.246-4.519,16.493-6.6,21.44-10.583-5.393,3.958-13.6,5.8-22.1,10.55,6.278-6.1,13.529-9.753,17.136-14.189-4.162,4.722-11.166,7.856-17.592,14.145a80.6,80.6,0,0,1,11.325-17.636,74.238,74.238,0,0,0-11.71,17.675,46.537,46.537,0,0,1,4.981-20.3,44.706,44.706,0,0,0-5.316,19.973,50.439,50.439,0,0,1-.715-21.49,49.816,49.816,0,0,0,.154,20.643c-3.387-7.543-5.1-12.424-5.091-20.44-.044,7.07.451,10.891,5.157,21.44-6.7-7.834-9.885-17.306-12.43-22.551,2.1,4.695,4.887,13.31,10.66,20.891C192.033,43.809,188,35.5,183.3,31.011c4.766,4.827,8.8,13.744,16.35,21.385C191.01,46,186.717,36.547,180.675,32.973c6.278,3.953,10.511,14.354,20.412,20.841-3.4,5.234-8.312,15.19-12.32,24.695A106.106,106.106,0,0,0,185.09,88.5a29.939,29.939,0,0,0-2.336,4.656,73.927,73.927,0,0,0-3.227,10.649c-.577,3.425-.033,4.217.918,4.469s2.232-1.435,2.787-3.458,1.963-8.719,2.331-10.313a35.85,35.85,0,0,0,.522-5.635c1.33-4.4,2.831-8.417,3.639-10.368a265.847,265.847,0,0,1,11.622-24.558c11.957,4.14,21.677,6.707,29.6,7.84A172.118,172.118,0,0,1,204.051,54.529Z" transform="translate(-179.289 -30.23)" fill="#47857d" opacity="0.6"/>
</svg>
