<svg xmlns="http://www.w3.org/2000/svg" width="30.825" height="41.858" viewBox="0 0 30.825 41.858">
  <path id="Path_62" data-name="Path 62" d="M142.889,12.12a136.889,136.889,0,0,0,13.925-9.753,144.4,144.4,0,0,1-14.294,9.769c5.294-4.195,9.786-8.246,13.029-11-3.3,2.666-7.817,6.669-13.051,10.775,4.277-4.448,7.955-8.56,10.489-11.545-2.716,3.018-6.559,7.389-11.122,11.946,2.595-4.948,6.515-8.719,7.3-12.347-.858,3.529-4.475,7.048-7.224,11.93,1.589-4.766,4.085-8.532,4.6-11.913-.693,3.5-3.26,7.18-4.887,12.095.269-4.656,1.8-8.708,1.649-11.754.066,3.354-1.561,7.108-1.82,11.9a43.029,43.029,0,0,1-1.913-11,39.676,39.676,0,0,0,1.765,11.166,24.816,24.816,0,0,1-5.355-9.775,23.815,23.815,0,0,0,5.107,9.764,26.889,26.889,0,0,1-8.021-8.191,26.559,26.559,0,0,0,7.5,8.059c-4.046-1.748-6.482-3.046-9.346-6.2,2.529,2.8,4.1,4.118,9.747,6.564-5.448-.671-10.1-3.244-13-4.4,2.518,1.1,6.718,3.469,11.721,4.4-5.338-.4-9.9-2.2-13.376-2.281,3.612.181,8.417,2.232,14.134,2.518-5.7.6-10.792-1.572-14.459-.8,3.892-.709,9.307,1.858,15.531.841a97.154,97.154,0,0,0,4.052,14.145,52.668,52.668,0,0,0,2.155,5.25,16.027,16.027,0,0,0,.759,2.672,39.218,39.218,0,0,0,2.567,5.349c1.006,1.556,1.506,1.649,1.968,1.429s.363-1.369-.148-2.364-2.369-4.134-2.8-4.893a19.09,19.09,0,0,0-1.825-2.4c-1.067-2.2-1.919-4.332-2.3-5.388a141.592,141.592,0,0,1-4.277-13.843,88.193,88.193,0,0,0,14.464-7.587,92.985,92.985,0,0,1-13.238,6.855Z" transform="translate(-125.991 0.03)" fill="#47857d"/>
</svg>
