<svg xmlns="http://www.w3.org/2000/svg" viewBox="0 0 211.14 52.6"><defs><style>.cls-1{fill:#221e1f;}</style></defs><title>menu-logo</title><g id="圖層_2" data-name="圖層 2"><g id="圖層_2-2" data-name="圖層 2"><path class="cls-1" d="M181.61,0c-16.29,0-29.54,11.79-29.54,26.29s13.25,26.28,29.54,26.28,29.54-11.79,29.54-26.28S197.89,0,181.61,0m0,45.93c-12.64,0-22.93-8.82-22.93-19.64S169,6.64,181.61,6.64s22.93,8.81,22.93,19.65-10.28,19.64-22.93,19.64"/><path class="cls-1" d="M52.31,24a17.33,17.33,0,0,1,.16,2.24c0,10.83-10.29,19.64-22.93,19.64S6.61,37.11,6.61,26.29,16.9,6.64,29.54,6.64a27.08,27.08,0,0,1,3.26.22l6.43-5.37A32.62,32.62,0,0,0,29.54,0C13.25,0,0,11.79,0,26.29S13.25,52.57,29.54,52.57,59.08,40.78,59.08,26.29a23.36,23.36,0,0,0-1.1-7Z"/><polygon class="cls-1" points="122.31 45.96 97.52 45.96 97.52 30.31 122.31 30.31 122.31 23.67 97.52 23.67 97.52 8.22 122.31 8.22 122.31 1.58 90.94 1.59 90.94 52.57 122.31 52.6 122.31 45.96"/><path class="cls-1" d="M47.08,52.6,64.7,30.31H81.75V52.57h6.61l.07-51H79.29l-.35,0L52.69,35l-.08-.06-14,17.66ZM81.75,8.73V23.67H69.94Z"/><path class="cls-1" d="M131.47,30.55h10.38a14.5,14.5,0,1,0,0-29l-17,0v51h6.61Zm0-22.34h10.38l.53,0a7.89,7.89,0,0,1,.19,15.73h-11.1Z"/></g></g></svg>