<svg xmlns="http://www.w3.org/2000/svg" width="50" height="50" viewBox="0 0 50 50">
  <g id="open" transform="translate(0 50) rotate(-90)" fill="none">
    <path d="M25,50A25.007,25.007,0,0,1,15.268,1.965,25.007,25.007,0,0,1,34.73,48.036,24.843,24.843,0,0,1,25,50Zm-.179-11.09h0c.078.006.157.009.243.009a3.131,3.131,0,0,0,2.324-1.034l8.887-9.869a3.125,3.125,0,0,0-4.645-4.182l-3.5,3.892V14.063a3.125,3.125,0,0,0-6.25,0V28.124l-3.863-4.29a3.125,3.125,0,1,0-4.645,4.181l8.887,9.87a3.132,3.132,0,0,0,2.325,1.034C24.663,38.92,24.744,38.917,24.82,38.911Z" stroke="none"/>
    <path d="M 24.99930000305176 49.00040054321289 C 28.23966026306152 49.00040054321289 31.38258934020996 48.36595916748047 34.3408088684082 47.11471176147461 C 37.1986083984375 45.90592956542969 39.76539993286133 44.17527008056641 41.96987915039063 41.97077941894531 C 44.17436981201172 39.76630020141602 45.905029296875 37.19950866699219 47.11381149291992 34.34170913696289 C 48.36505889892578 31.38348960876465 48.9995002746582 28.24056053161621 48.9995002746582 25.00020027160645 C 48.9995002746582 21.75984001159668 48.36505889892578 18.61691093444824 47.11381149291992 15.65869045257568 C 45.905029296875 12.80088996887207 44.17436981201172 10.23410034179688 41.96987915039063 8.029620170593262 C 39.76539993286133 5.825130462646484 37.1986083984375 4.094470500946045 34.3408088684082 2.885690212249756 C 31.38258934020996 1.634440302848816 28.23966026306152 1.000000238418579 24.99930000305176 1.000000238418579 C 21.75893974304199 1.000000238418579 18.61601066589355 1.634440302848816 15.657790184021 2.885690212249756 C 12.79998970031738 4.094470500946045 10.23320007324219 5.825130462646484 8.028719902038574 8.029620170593262 C 5.824230194091797 10.23410034179688 4.093570232391357 12.80088996887207 2.884789943695068 15.65869045257568 C 1.633540034294128 18.61691093444824 0.9991000294685364 21.75984001159668 0.9991000294685364 25.00020027160645 C 0.9991000294685364 28.24056053161621 1.633540034294128 31.38348960876465 2.884789943695068 34.34170913696289 C 4.093570232391357 37.19950866699219 5.824230194091797 39.76630020141602 8.028719902038574 41.97077941894531 C 10.23320007324219 44.17527008056641 12.79998970031738 45.90592956542969 15.657790184021 47.11471176147461 C 18.61601066589355 48.36595916748047 21.75893974304199 49.00040054321289 24.99930000305176 49.00040054321289 M 24.82022285461426 39.912841796875 C 24.74198150634766 39.91733169555664 24.66085433959961 39.91960144042969 24.57810020446777 39.91960144042969 C 23.40938949584961 39.91960144042969 22.29118919372559 39.42206954956055 21.51022911071777 38.55459976196289 L 12.6236400604248 28.68431091308594 C 11.88644981384277 27.86553001403809 11.51220989227295 26.80873107910156 11.56986999511719 25.70858955383301 C 11.62751960754395 24.60844039916992 12.11019039154053 23.59654998779297 12.92899036407471 22.85934066772461 C 13.68778991699219 22.17613983154297 14.66771984100342 21.79989051818848 15.68826007843018 21.79989051818848 C 16.85619926452637 21.79989051818848 17.97393989562988 22.29734039306641 18.75485992431641 23.1646900177002 L 20.8745002746582 25.51891326904297 L 20.8745002746582 14.0625 C 20.8745002746582 11.7880802154541 22.72488021850586 9.937700271606445 24.99930000305176 9.937700271606445 C 27.27421951293945 9.937700271606445 29.125 11.7880802154541 29.125 14.0625 L 29.125 25.12014198303223 L 30.88554000854492 23.1646900177002 C 31.66646003723145 22.29734039306641 32.78419876098633 21.79989051818848 33.95214080810547 21.79989051818848 C 34.97267913818359 21.79989051818848 35.95261001586914 22.17613983154297 36.71141052246094 22.85933113098145 C 38.40121078491211 24.38074111938477 38.53828811645508 26.99410057067871 37.01673889160156 28.68523979187012 L 28.13018989562988 38.55458068847656 C 27.34921073913574 39.42206954956055 26.2313404083252 39.91960144042969 25.06319999694824 39.91960144042969 C 24.9791202545166 39.91960144042969 24.89897918701172 39.91738128662109 24.82022285461426 39.912841796875 M 24.99930000305176 50.00040054321289 C 21.62438011169434 50.00040054321289 18.35037040710449 49.33938217163086 15.26823043823242 48.03570938110352 C 12.29123973846436 46.77651977539063 9.617609977722168 44.9738883972168 7.321609973907471 42.67789077758789 C 5.025609970092773 40.38188934326172 3.22298002243042 37.70825958251953 1.963790059089661 34.73126983642578 C 0.6601200103759766 31.64912986755371 -0.0008999969577416778 28.37512016296387 -0.0008999969577416778 25.00020027160645 C -0.0008999969577416778 21.62528038024902 0.6601200103759766 18.35127067565918 1.963790059089661 15.26913070678711 C 3.22298002243042 12.29214000701904 5.025609970092773 9.618510246276855 7.321609973907471 7.322510242462158 C 9.617609977722168 5.026510238647461 12.29123973846436 3.223880290985107 15.26823043823242 1.964690327644348 C 18.35037040710449 0.6610202789306641 21.62438011169434 2.716064386731887e-07 24.99930000305176 2.716064386731887e-07 C 28.37421989440918 2.716064386731887e-07 31.64822959899902 0.6610202789306641 34.73036956787109 1.964690327644348 C 37.70735931396484 3.223880290985107 40.38098907470703 5.026510238647461 42.6769905090332 7.322510242462158 C 44.97298812866211 9.618510246276855 46.77561950683594 12.29214000701904 48.03480911254883 15.26913070678711 C 49.33848190307617 18.35127067565918 49.9995002746582 21.62528038024902 49.9995002746582 25.00020027160645 C 49.9995002746582 28.37512016296387 49.33848190307617 31.64912986755371 48.03480911254883 34.73126983642578 C 46.77561950683594 37.70825958251953 44.97298812866211 40.38188934326172 42.6769905090332 42.67789077758789 C 40.38098907470703 44.9738883972168 37.70735931396484 46.77651977539063 34.73036956787109 48.03570938110352 C 31.64822959899902 49.33938217163086 28.37421989440918 50.00040054321289 24.99930000305176 50.00040054321289 Z M 24.82011985778809 38.91061019897461 L 24.82019996643066 38.91061019897461 L 24.82028007507324 38.91061019897461 C 24.89809989929199 38.91666030883789 24.97756004333496 38.91960144042969 25.06319999694824 38.91960144042969 C 25.94836044311523 38.91960144042969 26.79534912109375 38.54269027709961 27.38699913024902 37.88550186157227 L 36.27360153198242 28.01609992980957 C 37.42621994018555 26.73501968383789 37.32246017456055 24.75509071350098 36.04230117797852 23.60250091552734 C 35.46744918823242 23.08493041992188 34.72515106201172 22.79989051818848 33.95214080810547 22.79989051818848 C 33.0671501159668 22.79989051818848 32.22029113769531 23.1767406463623 31.62870025634766 23.83379936218262 L 28.125 27.72540092468262 L 28.125 14.0625 C 28.125 12.33948040008545 26.72282028198242 10.93770027160645 24.99930000305176 10.93770027160645 C 23.27627944946289 10.93770027160645 21.8745002746582 12.33948040008545 21.8745002746582 14.0625 L 21.8745002746582 28.12409973144531 L 18.01169967651367 23.83379936218262 C 17.42011070251465 23.1767406463623 16.57324981689453 22.79989051818848 15.68826007843018 22.79989051818848 C 14.91524982452393 22.79989051818848 14.17294979095459 23.08493041992188 13.59809970855713 23.60250091552734 C 12.9778299331665 24.16097068786621 12.61217021942139 24.92751121520996 12.56849956512451 25.76091957092285 C 12.52482032775879 26.59433937072754 12.80832958221436 27.39492034912109 13.36680030822754 28.01519966125488 L 22.2534008026123 37.88550186157227 C 22.84505081176758 38.54269027709961 23.69236946105957 38.91960144042969 24.57810020446777 38.91960144042969 C 24.66271018981934 38.91960144042969 24.744140625 38.91658020019531 24.82011985778809 38.91061019897461 Z" stroke="none" fill="#707070"/>
  </g>
</svg>
