<svg xmlns="http://www.w3.org/2000/svg" width="50" height="50" viewBox="0 0 50 50">
  <g id="toTop" transform="translate(4378 4580)" fill="#918b8b">
    <path d="M -4352.99951171875 -4530.5 C -4356.30712890625 -4530.5 -4359.515625 -4531.14794921875 -4362.5361328125 -4532.42529296875 C -4365.45361328125 -4533.6591796875 -4368.07373046875 -4535.42578125 -4370.32373046875 -4537.67626953125 C -4372.57373046875 -4539.92578125 -4374.34033203125 -4542.5458984375 -4375.57470703125 -4545.4638671875 C -4376.85205078125 -4548.4853515625 -4377.49951171875 -4551.69384765625 -4377.49951171875 -4555 C -4377.49951171875 -4558.306640625 -4376.85205078125 -4561.51513671875 -4375.57470703125 -4564.53662109375 C -4374.34033203125 -4567.455078125 -4372.57373046875 -4570.07470703125 -4370.32373046875 -4572.32373046875 C -4368.07373046875 -4574.57421875 -4365.45361328125 -4576.3408203125 -4362.5361328125 -4577.5751953125 C -4359.5146484375 -4578.8525390625 -4356.30615234375 -4579.5 -4352.99951171875 -4579.5 C -4349.693359375 -4579.5 -4346.48486328125 -4578.8525390625 -4343.46337890625 -4577.5751953125 C -4340.5458984375 -4576.3408203125 -4337.92578125 -4574.57421875 -4335.67578125 -4572.32373046875 C -4333.4248046875 -4570.07275390625 -4331.658203125 -4567.453125 -4330.4248046875 -4564.53662109375 C -4329.1474609375 -4561.51611328125 -4328.49951171875 -4558.3076171875 -4328.49951171875 -4555 C -4328.49951171875 -4551.69287109375 -4329.1474609375 -4548.484375 -4330.4248046875 -4545.4638671875 C -4331.65869140625 -4542.54638671875 -4333.42529296875 -4539.92626953125 -4335.67578125 -4537.67626953125 C -4337.92578125 -4535.42578125 -4340.5458984375 -4533.6591796875 -4343.46337890625 -4532.42529296875 C -4346.48388671875 -4531.14794921875 -4349.6923828125 -4530.5 -4352.99951171875 -4530.5 Z M -4356.625 -4556.82275390625 L -4356.625 -4544.0634765625 C -4356.625 -4542.064453125 -4354.99853515625 -4540.43798828125 -4352.99951171875 -4540.43798828125 C -4351.00146484375 -4540.43798828125 -4349.37548828125 -4542.064453125 -4349.37548828125 -4544.0634765625 L -4349.37548828125 -4556.42431640625 L -4346.7412109375 -4553.4990234375 C -4346.05615234375 -4552.7373046875 -4345.07421875 -4552.30029296875 -4344.0478515625 -4552.30029296875 C -4343.15087890625 -4552.30029296875 -4342.28955078125 -4552.63134765625 -4341.62255859375 -4553.23193359375 C -4340.9033203125 -4553.8798828125 -4340.4794921875 -4554.76904296875 -4340.4287109375 -4555.73583984375 C -4340.37841796875 -4556.70263671875 -4340.70751953125 -4557.63134765625 -4341.35546875 -4558.3505859375 L -4350.24169921875 -4568.2197265625 C -4350.927734375 -4568.982421875 -4351.91015625 -4569.419921875 -4352.9365234375 -4569.419921875 C -4353.0205078125 -4569.419921875 -4353.1015625 -4569.41748046875 -4353.1787109375 -4569.412109375 C -4353.255859375 -4569.41748046875 -4353.3369140625 -4569.419921875 -4353.4208984375 -4569.419921875 C -4354.4482421875 -4569.419921875 -4355.43115234375 -4568.982421875 -4356.1171875 -4568.2197265625 L -4365.00341796875 -4558.349609375 C -4365.65185546875 -4557.630859375 -4365.9814453125 -4556.7021484375 -4365.9306640625 -4555.7353515625 C -4365.8798828125 -4554.76806640625 -4365.45556640625 -4553.87890625 -4364.73486328125 -4553.2314453125 C -4364.06884765625 -4552.63134765625 -4363.2080078125 -4552.30029296875 -4362.31103515625 -4552.30029296875 C -4361.28466796875 -4552.30029296875 -4360.302734375 -4552.7373046875 -4359.61669921875 -4553.4990234375 L -4356.625 -4556.82275390625 Z" stroke="none"/>
    <path d="M -4352.99951171875 -4531 C -4349.759765625 -4531 -4346.61669921875 -4531.63427734375 -4343.658203125 -4532.8857421875 C -4340.80029296875 -4534.09423828125 -4338.23388671875 -4535.8251953125 -4336.029296875 -4538.02978515625 C -4333.82470703125 -4540.234375 -4332.09375 -4542.80078125 -4330.88525390625 -4545.65869140625 C -4329.6337890625 -4548.6171875 -4328.99951171875 -4551.76025390625 -4328.99951171875 -4555 C -4328.99951171875 -4558.240234375 -4329.6337890625 -4561.38330078125 -4330.88525390625 -4564.341796875 C -4332.09375 -4567.19873046875 -4333.82421875 -4569.76513671875 -4336.029296875 -4571.97021484375 C -4338.2333984375 -4574.1748046875 -4340.80029296875 -4575.90576171875 -4343.65771484375 -4577.11474609375 C -4346.61767578125 -4578.36572265625 -4349.7607421875 -4579 -4352.99951171875 -4579 C -4356.23876953125 -4579 -4359.3818359375 -4578.36572265625 -4362.34130859375 -4577.11474609375 C -4365.19921875 -4575.90576171875 -4367.76611328125 -4574.1748046875 -4369.97021484375 -4571.97021484375 C -4372.17431640625 -4569.76708984375 -4373.90478515625 -4567.20068359375 -4375.1142578125 -4564.34228515625 C -4376.365234375 -4561.38232421875 -4376.99951171875 -4558.2392578125 -4376.99951171875 -4555 C -4376.99951171875 -4551.76123046875 -4376.365234375 -4548.6181640625 -4375.1142578125 -4545.65869140625 C -4373.9052734375 -4542.80029296875 -4372.17431640625 -4540.23388671875 -4369.97021484375 -4538.02978515625 C -4367.765625 -4535.8251953125 -4365.19921875 -4534.09423828125 -4362.34130859375 -4532.8857421875 C -4359.3828125 -4531.63427734375 -4356.23974609375 -4531 -4352.99951171875 -4531 M -4357.125 -4555.52001953125 L -4359.2451171875 -4553.16455078125 C -4360.02587890625 -4552.29736328125 -4361.14306640625 -4551.80029296875 -4362.31103515625 -4551.80029296875 C -4363.33203125 -4551.80029296875 -4364.31201171875 -4552.1767578125 -4365.0693359375 -4552.85986328125 C -4365.88916015625 -4553.5966796875 -4366.37255859375 -4554.6083984375 -4366.4296875 -4555.708984375 C -4366.48779296875 -4556.8095703125 -4366.11279296875 -4557.8662109375 -4365.375 -4558.68408203125 L -4356.48876953125 -4568.55419921875 C -4355.7080078125 -4569.421875 -4354.58984375 -4569.919921875 -4353.4208984375 -4569.919921875 C -4353.337890625 -4569.919921875 -4353.2568359375 -4569.91748046875 -4353.1787109375 -4569.9130859375 C -4353.1005859375 -4569.91748046875 -4353.01953125 -4569.919921875 -4352.9365234375 -4569.919921875 C -4351.7685546875 -4569.919921875 -4350.65087890625 -4569.421875 -4349.8701171875 -4568.55419921875 L -4340.98388671875 -4558.685546875 C -4340.24658203125 -4557.86669921875 -4339.8720703125 -4556.81005859375 -4339.9296875 -4555.70947265625 C -4339.98681640625 -4554.60986328125 -4340.46923828125 -4553.59765625 -4341.28759765625 -4552.8603515625 C -4342.046875 -4552.1767578125 -4343.02685546875 -4551.80029296875 -4344.0478515625 -4551.80029296875 C -4345.2158203125 -4551.80029296875 -4346.3330078125 -4552.29736328125 -4347.11279296875 -4553.16455078125 L -4348.87548828125 -4555.12158203125 L -4348.87548828125 -4544.0634765625 C -4348.87548828125 -4541.78857421875 -4350.7255859375 -4539.93798828125 -4352.99951171875 -4539.93798828125 C -4355.2744140625 -4539.93798828125 -4357.125 -4541.78857421875 -4357.125 -4544.0634765625 L -4357.125 -4555.52001953125 M -4352.99951171875 -4530 C -4356.37451171875 -4530 -4359.6484375 -4530.6611328125 -4362.73095703125 -4531.96484375 C -4365.70751953125 -4533.2236328125 -4368.380859375 -4535.02587890625 -4370.67724609375 -4537.32275390625 C -4372.97314453125 -4539.6181640625 -4374.77587890625 -4542.2919921875 -4376.03515625 -4545.26904296875 C -4377.33837890625 -4548.35205078125 -4377.99951171875 -4551.6259765625 -4377.99951171875 -4555 C -4377.99951171875 -4558.37451171875 -4377.33837890625 -4561.6484375 -4376.03515625 -4564.7314453125 C -4374.775390625 -4567.70947265625 -4372.97265625 -4570.3828125 -4370.67724609375 -4572.67724609375 C -4368.38134765625 -4574.9736328125 -4365.70751953125 -4576.7763671875 -4362.73095703125 -4578.03564453125 C -4359.64794921875 -4579.3388671875 -4356.3740234375 -4580 -4352.99951171875 -4580 C -4349.62548828125 -4580 -4346.3515625 -4579.3388671875 -4343.2685546875 -4578.03564453125 C -4340.2919921875 -4576.7763671875 -4337.6181640625 -4574.9736328125 -4335.322265625 -4572.67724609375 C -4333.02587890625 -4570.380859375 -4331.22314453125 -4567.70751953125 -4329.96435546875 -4564.7314453125 C -4328.66064453125 -4561.64892578125 -4327.99951171875 -4558.375 -4327.99951171875 -4555 C -4327.99951171875 -4551.62548828125 -4328.66064453125 -4548.3515625 -4329.96435546875 -4545.26904296875 C -4331.22314453125 -4542.29248046875 -4333.025390625 -4539.619140625 -4335.322265625 -4537.32275390625 C -4337.61865234375 -4535.02587890625 -4340.2919921875 -4533.2236328125 -4343.2685546875 -4531.96484375 C -4346.35107421875 -4530.6611328125 -4349.625 -4530 -4352.99951171875 -4530 Z M -4356.125 -4558.12548828125 L -4356.125 -4558.123046875 L -4356.125 -4544.0634765625 C -4356.125 -4542.34033203125 -4354.72265625 -4540.93798828125 -4352.99951171875 -4540.93798828125 C -4351.27685546875 -4540.93798828125 -4349.87548828125 -4542.34033203125 -4349.87548828125 -4544.0634765625 L -4349.87548828125 -4557.7265625 L -4346.36962890625 -4553.83349609375 C -4345.77880859375 -4553.1767578125 -4344.93212890625 -4552.80029296875 -4344.0478515625 -4552.80029296875 C -4343.2744140625 -4552.80029296875 -4342.5322265625 -4553.08544921875 -4341.95703125 -4553.603515625 C -4341.3369140625 -4554.162109375 -4340.9716796875 -4554.92822265625 -4340.92822265625 -4555.76171875 C -4340.884765625 -4556.59521484375 -4341.16845703125 -4557.39599609375 -4341.72705078125 -4558.01611328125 L -4350.61328125 -4567.88525390625 C -4351.20458984375 -4568.54248046875 -4352.05126953125 -4568.919921875 -4352.9365234375 -4568.919921875 C -4353.01953125 -4568.919921875 -4353.10107421875 -4568.9169921875 -4353.1787109375 -4568.91064453125 C -4353.25634765625 -4568.9169921875 -4353.337890625 -4568.919921875 -4353.4208984375 -4568.919921875 C -4354.30712890625 -4568.919921875 -4355.154296875 -4568.54248046875 -4355.74560546875 -4567.88525390625 L -4364.6318359375 -4558.01513671875 C -4365.19140625 -4557.39501953125 -4365.47509765625 -4556.59521484375 -4365.43115234375 -4555.76171875 C -4365.3876953125 -4554.92822265625 -4365.02197265625 -4554.16162109375 -4364.40087890625 -4553.603515625 C -4363.826171875 -4553.08544921875 -4363.083984375 -4552.80029296875 -4362.31103515625 -4552.80029296875 C -4361.4267578125 -4552.80029296875 -4360.57958984375 -4553.1767578125 -4359.98828125 -4553.83349609375 L -4356.126953125 -4558.12353515625 L -4356.125 -4558.12548828125 Z" stroke="none" fill="#707070"/>
  </g>
</svg>
